<svg width="720" height="560" viewBox="0 0 720 560" fill="none" xmlns="http://www.w3.org/2000/svg">
  <rect width="720" height="560" rx="40" fill="#08111E"/>
  <rect x="54" y="58" width="184" height="444" rx="36" fill="#F8FAFC"/>
  <rect x="78" y="98" width="136" height="20" rx="10" fill="#0F172A"/>
  <rect x="78" y="144" width="136" height="146" rx="28" fill="#8B1E3F"/>
  <rect x="78" y="316" width="94" height="16" rx="8" fill="#0F172A"/>
  <rect x="78" y="352" width="110" height="58" rx="22" fill="#F27427"/>
  <rect x="278" y="28" width="388" height="504" rx="34" fill="#0F172A" stroke="rgba(248,250,252,0.12)"/>
  <rect x="310" y="66" width="324" height="78" rx="24" fill="#111827"/>
  <rect x="338" y="90" width="120" height="16" rx="8" fill="#38BDF8"/>
  <rect x="338" y="118" width="198" height="14" rx="7" fill="#CBD5E1"/>
  <rect x="310" y="170" width="152" height="150" rx="28" fill="#FFF7ED"/>
  <rect x="482" y="170" width="152" height="150" rx="28" fill="#8B1E3F"/>
  <rect x="310" y="344" width="324" height="156" rx="28" fill="#FFF7ED"/>
  <circle cx="392" cy="420" r="40" fill="#0F172A"/>
  <rect x="454" y="388" width="128" height="20" rx="10" fill="#8B1E3F"/>
  <rect x="454" y="424" width="102" height="16" rx="8" fill="#475569"/>
  <rect x="454" y="454" width="78" height="14" rx="7" fill="#94A3B8"/>
</svg>
