<svg width="720" height="560" viewBox="0 0 720 560" fill="none" xmlns="http://www.w3.org/2000/svg">
  <rect width="720" height="560" rx="40" fill="#09111F"/>
  <rect x="26" y="26" width="668" height="508" rx="28" fill="#0F172A" stroke="rgba(248,250,252,0.12)"/>
  <rect x="52" y="52" width="178" height="456" rx="22" fill="#111827"/>
  <rect x="74" y="82" width="102" height="18" rx="9" fill="#F27427"/>
  <rect x="74" y="130" width="130" height="16" rx="8" fill="#F8FAFC"/>
  <rect x="74" y="166" width="110" height="16" rx="8" fill="#CBD5E1"/>
  <rect x="74" y="202" width="126" height="16" rx="8" fill="#CBD5E1"/>
  <rect x="256" y="52" width="412" height="126" rx="24" fill="#8B1E3F"/>
  <rect x="284" y="84" width="118" height="16" rx="8" fill="#FFF7ED"/>
  <rect x="284" y="118" width="208" height="28" rx="14" fill="#F8FAFC"/>
  <rect x="256" y="200" width="196" height="138" rx="24" fill="#FFF7ED"/>
  <rect x="278" y="224" width="76" height="14" rx="7" fill="#0F172A"/>
  <rect x="278" y="260" width="128" height="48" rx="18" fill="#F3B23A"/>
  <rect x="472" y="200" width="196" height="138" rx="24" fill="#111827"/>
  <rect x="494" y="224" width="92" height="14" rx="7" fill="#38BDF8"/>
  <rect x="494" y="260" width="132" height="18" rx="9" fill="#F8FAFC"/>
  <rect x="494" y="292" width="108" height="14" rx="7" fill="#CBD5E1"/>
  <rect x="256" y="360" width="412" height="148" rx="24" fill="#FFF7ED"/>
  <rect x="282" y="386" width="126" height="16" rx="8" fill="#0F172A"/>
  <rect x="282" y="424" width="360" height="18" rx="9" fill="#CBD5E1"/>
  <rect x="282" y="458" width="288" height="18" rx="9" fill="#E2E8F0"/>
</svg>
