<svg width="720" height="560" viewBox="0 0 720 560" fill="none" xmlns="http://www.w3.org/2000/svg">
  <rect width="720" height="560" rx="40" fill="#0B1220"/>
  <rect x="28" y="28" width="664" height="504" rx="30" fill="#F8FAFC"/>
  <rect x="56" y="56" width="608" height="60" rx="22" fill="#0F172A"/>
  <rect x="84" y="78" width="116" height="16" rx="8" fill="#F27427"/>
  <rect x="492" y="78" width="60" height="16" rx="8" fill="#F8FAFC"/>
  <rect x="572" y="78" width="60" height="16" rx="8" fill="#CBD5E1"/>
  <rect x="56" y="138" width="608" height="190" rx="28" fill="#8B1E3F"/>
  <circle cx="540" cy="232" r="72" fill="#F3B23A" fill-opacity="0.75"/>
  <rect x="90" y="174" width="124" height="16" rx="8" fill="#FFF7ED"/>
  <rect x="90" y="214" width="286" height="42" rx="21" fill="#F8FAFC"/>
  <rect x="90" y="276" width="224" height="18" rx="9" fill="#F7D9E3"/>
  <rect x="56" y="352" width="186" height="146" rx="24" fill="#FFF7ED"/>
  <rect x="267" y="352" width="186" height="146" rx="24" fill="#111827"/>
  <rect x="478" y="352" width="186" height="146" rx="24" fill="#FFF7ED"/>
  <rect x="82" y="378" width="108" height="14" rx="7" fill="#0F172A"/>
  <rect x="82" y="414" width="120" height="44" rx="18" fill="#F27427"/>
  <rect x="293" y="378" width="90" height="14" rx="7" fill="#38BDF8"/>
  <rect x="293" y="416" width="120" height="18" rx="9" fill="#F8FAFC"/>
  <rect x="293" y="448" width="102" height="14" rx="7" fill="#CBD5E1"/>
  <rect x="504" y="378" width="96" height="14" rx="7" fill="#0F172A"/>
  <rect x="504" y="416" width="132" height="18" rx="9" fill="#475569"/>
  <rect x="504" y="448" width="92" height="14" rx="7" fill="#94A3B8"/>
</svg>
